Coordinates
version=1
nRows=37
nColumns=38
inDegrees=no

Units are S.I. units (second, meters, Newtons, ...)
If the header above contains a line with 'inDegrees', this indicates whether rotational values are in degrees (yes) or radians (no).

endheader
time	pelvis_tilt	pelvis_list	pelvis_rotation	pelvis_tx	pelvis_ty	pelvis_tz	hip_flexion_r	hip_adduction_r	hip_rotation_r	knee_angle_r	ankle_angle_r	subtalar_angle_r	mtp_angle_r	hip_flexion_l	hip_adduction_l	hip_rotation_l	knee_angle_l	ankle_angle_l	subtalar_angle_l	mtp_angle_l	lumbar_extension	lumbar_bending	lumbar_rotation	arm_flex_r	arm_add_r	arm_rot_r	elbow_flex_r	pro_sup_r	wrist_flex_r	wrist_dev_r	arm_flex_l	arm_add_l	arm_rot_l	elbow_flex_l	pro_sup_l	wrist_flex_l	wrist_dev_l
0	2.83265	1.42914	-1.23595	0.783544	-0.248482	1.00042	-0.284548	0.0631113	-0.322481	0.259983	0.2364	0	0	0.304833	-0.0574144	-0.217487	0.255571	0.0204536	0	0	-0.388597	0.0564105	0.031668	-0.0193289	-0.198959	0.081838	0.401455	1.32444	0	0	0.0815259	-0.269387	0.335562	0.381819	1.3228	0	0
0.01	2.89903	1.42583	-1.30329	0.782609	-0.238504	0.999677	-0.301424	0.0530791	-0.321187	0.262138	0.242801	0	0	0.292604	-0.0430271	-0.213625	0.232466	0.0196325	0	0	-0.39486	0.048084	0.0322569	-0.0209673	-0.199281	0.0797974	0.400065	1.32506	0	0	0.0792536	-0.269304	0.337161	0.38751	1.31781	0	0
0.02	2.92819	1.4121	-1.33239	0.781518	-0.227532	1.00044	-0.341177	0.0418112	-0.344237	0.243035	0.251275	0	0	0.268833	-0.0416616	-0.218641	0.212332	0.0247407	0	0	-0.40998	0.0474861	0.032431	-0.0222446	-0.199895	0.0758037	0.398663	1.3266	0	0	0.0752558	-0.268327	0.33859	0.394028	1.31341	0	0
0.03	2.95497	1.39932	-1.36565	0.782538	-0.216884	1.00053	-0.371125	0.0423433	-0.327439	0.232381	0.24488	0	0	0.254441	-0.0411296	-0.235505	0.212785	0.0313876	0	0	-0.424041	0.0404668	0.040271	-0.0241724	-0.195747	0.0665168	0.396378	1.33656	0	0	0.0704366	-0.273247	0.343596	0.406047	1.30796	0	0
0.04	3.02631	1.41671	-1.43348	0.780059	-0.207889	0.996907	-0.344525	0.0309542	-0.314902	0.271278	0.251662	0	0	0.276671	-0.0160813	-0.215437	0.220223	0.0238691	0	0	-0.407282	0.0296839	0.0363545	-0.0304319	-0.199584	0.0657171	0.39919	1.33898	0	0	0.0667732	-0.269127	0.339579	0.409872	1.30873	0	0
0.05	3.01645	1.41295	-1.43435	0.780829	-0.196445	0.996579	-0.36181	0.0186689	-0.326855	0.272519	0.262815	0	0	0.272993	-0.025556	-0.239925	0.232325	0.0312976	0	0	-0.40903	0.0259053	0.0461407	-0.0339854	-0.197657	0.0644421	0.396388	1.34143	0	0	0.0587439	-0.269217	0.330976	0.415853	1.31152	0	0
0.06	2.99314	1.42017	-1.41027	0.779678	-0.186018	0.994411	-0.358018	0.0184932	-0.325799	0.286374	0.266701	0	0	0.287906	-0.0269087	-0.236083	0.255388	0.0353968	0	0	-0.399046	0.0291943	0.0480835	-0.0401518	-0.199678	0.0619948	0.397129	1.34442	0	0	0.0513089	-0.266309	0.322436	0.422731	1.31633	0	0
0.07	3.03274	1.42778	-1.44954	0.777306	-0.175246	0.992555	-0.352946	0.00452162	-0.332164	0.306801	0.2719	0	0	0.294507	-0.0159023	-0.230561	0.26918	0.0367948	0	0	-0.389322	0.0246794	0.047031	-0.0474542	-0.203403	0.0600484	0.398851	1.34808	0	0	0.0435408	-0.260999	0.312555	0.427221	1.32314	0	0
0.08	3.05354	1.42881	-1.47744	0.776602	-0.163606	0.991299	-0.355428	-0.00542842	-0.328518	0.323804	0.270642	0	0	0.295202	-0.0132872	-0.232969	0.291824	0.0447698	0	0	-0.384583	0.0191336	0.0537989	-0.0552732	-0.204397	0.0576035	0.398707	1.35173	0	0	0.0346151	-0.258263	0.301513	0.432136	1.3312	0	0
0.09	3.05126	1.43178	-1.48288	0.775955	-0.151716	0.989744	-0.354263	-0.0124022	-0.321571	0.342671	0.268435	0	0	0.298303	-0.0140051	-0.22974	0.317241	0.0539745	0	0	-0.376653	0.0167015	0.0620811	-0.0643641	-0.205826	0.0540073	0.398966	1.35519	0	0	0.0249195	-0.255576	0.291879	0.436572	1.33968	0	0
0.1	3.02813	1.43102	-1.47579	0.776584	-0.139008	0.988501	-0.356394	-0.0171299	-0.302033	0.362105	0.266356	0	0	0.296782	-0.0211577	-0.235666	0.344129	0.0631868	0	0	-0.370546	0.0139094	0.0781131	-0.0754386	-0.205747	0.0443038	0.400775	1.36715	0	0	0.0134533	-0.252335	0.270908	0.438933	1.36948	0	0
0.11	3.06186	1.43235	-1.51278	0.774807	-0.126204	0.987146	-0.356145	-0.0302396	-0.301182	0.386696	0.264855	0	0	0.290843	-0.0132113	-0.230026	0.352654	0.0494647	0	0	-0.361869	0.00916563	0.0801367	-0.0876112	-0.207953	0.0399945	0.403075	1.36933	0	0	0.00270634	-0.249677	0.266454	0.440149	1.37445	0	0
0.12	3.14011	1.42337	-1.60167	0.774063	-0.112691	0.987081	-0.364874	-0.0519663	-0.294467	0.413053	0.257705	0	0	0.270348	-0.00130552	-0.238024	0.354349	0.0230175	0	0	-0.363171	-0.00607167	0.0870781	-0.0992544	-0.207294	0.0350975	0.405209	1.37144	0	0	-0.00830827	-0.250505	0.264403	0.443339	1.37951	0	0
0.13	-3.11297	1.4303	-1.63607	0.772629	-0.101129	0.986067	-0.346383	-0.0649278	-0.283563	0.45393	0.246767	0	0	0.276854	0.00420694	-0.228437	0.36877	-0.00126306	0	0	-0.351817	-0.0114986	0.0905194	-0.108157	-0.207846	0.0280286	0.408778	1.37508	0	0	-0.0150913	-0.249981	0.266694	0.445796	1.38501	0	0
0.14	-3.10024	1.43511	-1.65684	0.772639	-0.0897295	0.986021	-0.325326	-0.072783	-0.259954	0.498387	0.223516	0	0	0.284522	0.00373747	-0.220365	0.393968	-0.0102892	0	0	-0.343507	-0.0175834	0.0973323	-0.113184	-0.203646	0.0136331	0.407589	1.38862	0	0	-0.0203118	-0.252168	0.270036	0.447447	1.38848	0	0
0.15	-3.02197	1.4356	-1.73869	0.771527	-0.0781883	0.986675	-0.305292	-0.0919141	-0.247349	0.548006	0.196123	0	0	0.285124	0.0148358	-0.213893	0.413397	-0.00761096	0	0	-0.338524	-0.0306297	0.0973968	-0.116725	-0.1998	0.00275967	0.404978	1.39903	0	0	-0.0243215	-0.253895	0.273544	0.447883	1.38758	0	0
0.16	-2.943	1.4364	-1.81924	0.770235	-0.0669101	0.987443	-0.280489	-0.111133	-0.236348	0.601859	0.162892	0	0	0.285325	0.0265236	-0.209748	0.429237	-0.00534594	0	0	-0.332746	-0.0427191	0.0959053	-0.118442	-0.196028	-0.00689007	0.399823	1.40944	0	0	-0.0264385	-0.255525	0.279754	0.446418	1.38381	0	0
0.17	-2.82386	1.44568	-1.93439	0.767534	-0.0563842	0.987155	-0.238138	-0.134897	-0.232454	0.66684	0.126834	0	0	0.294329	0.0431446	-0.203714	0.437682	-0.00792845	0	0	-0.316635	-0.0529837	0.0889535	-0.119824	-0.195237	-0.0133392	0.394427	1.41699	0	0	-0.0273941	-0.254717	0.287486	0.442259	1.37809	0	0
0.18	-2.67893	1.44689	-2.07944	0.76604	-0.0466391	0.987913	-0.196949	-0.161684	-0.220376	0.73217	0.0830796	0	0	0.295576	0.0611985	-0.210822	0.440797	-0.0117961	0	0	-0.308303	-0.0705208	0.0834912	-0.114145	-0.191209	-0.0182573	0.381998	1.4234	0	0	-0.0254361	-0.257288	0.295885	0.438357	1.37063	0	0
0.19	-2.62491	1.45	-2.14203	0.765862	-0.0362158	0.98825	-0.156055	-0.173797	-0.194162	0.795302	0.0351029	0	0	0.292402	0.0646664	-0.2212	0.445382	-0.00280396	0	0	-0.29944	-0.077888	0.0894045	-0.112731	-0.189656	-0.0212665	0.373263	1.43077	0	0	-0.0265496	-0.260431	0.309092	0.437061	1.36007	0	0
0.2	-2.50732	1.46566	-2.2648	0.764398	-0.0263767	0.986695	-0.0945711	-0.184471	-0.170878	0.866463	-0.0110142	0	0	0.30244	0.0669411	-0.232685	0.443738	0.00905548	0	0	-0.274653	-0.0790502	0.0938924	-0.117047	-0.193204	-0.0184645	0.37325	1.43266	0	0	-0.0292988	-0.260627	0.323248	0.435683	1.34725	0	0
0.21	-2.23547	1.4657	-2.53706	0.762758	-0.0183871	0.986344	-0.0292092	-0.213615	-0.15229	0.938081	-0.061168	0	0	0.307276	0.0883164	-0.255375	0.423275	0.00284315	0	0	-0.255742	-0.099761	0.0884667	-0.111723	-0.190934	-0.0149384	0.366692	1.43154	0	0	-0.0268904	-0.265194	0.333514	0.435893	1.33632	0	0
0.22	-2.20555	1.47029	-2.58152	0.762659	-0.0077418	0.985932	0.0139145	-0.215283	-0.121463	0.99479	-0.112576	0	0	0.311727	0.0834164	-0.255573	0.44742	0.0241058	0	0	-0.244623	-0.0991981	0.102751	-0.119355	-0.195547	-0.00763424	0.37408	1.42627	0	0	-0.0325102	-0.267626	0.348057	0.442163	1.32069	0	0
0.23	-2.09224	1.46996	-2.70067	0.761942	0.00135206	0.98589	0.0626016	-0.225162	-0.0996888	1.05132	-0.163953	0	0	0.312954	0.0888925	-0.26464	0.449745	0.0341989	0	0	-0.2336	-0.10619	0.106394	-0.121869	-0.196768	-0.0030942	0.379832	1.42117	0	0	-0.034118	-0.271459	0.357545	0.447709	1.31	0	0
0.24	-2.02531	1.46707	-2.77113	0.761108	0.0103409	0.986514	0.103346	-0.234686	-0.0836806	1.10159	-0.215291	0	0	0.307789	0.0956903	-0.267635	0.449097	0.0432459	0	0	-0.228416	-0.112134	0.107406	-0.123618	-0.197677	-0.000737319	0.386344	1.41736	0	0	-0.0344469	-0.274478	0.364125	0.452045	1.30228	0	0
0.25	-1.92036	1.46453	-2.87493	0.759219	0.018951	0.986793	0.147535	-0.247023	-0.0741628	1.14849	-0.265496	0	0	0.306298	0.105531	-0.265981	0.44442	0.0497272	0	0	-0.219015	-0.116305	0.104161	-0.126574	-0.200344	0.00209183	0.395031	1.41304	0	0	-0.0340226	-0.274889	0.369487	0.453883	1.29515	0	0
0.26	-1.90106	1.46326	-2.89479	0.758074	0.0278343	0.988031	0.179559	-0.252196	-0.0645311	1.18708	-0.307904	0	0	0.29476	0.110965	-0.262339	0.437986	0.0563258	0	0	-0.217753	-0.117089	0.102541	-0.128302	-0.202467	0.00597537	0.403109	1.40831	0	0	-0.0325961	-0.274649	0.372672	0.453545	1.28875	0	0
0.27	-1.9075	1.47168	-2.88897	0.756983	0.0370449	0.988797	0.209376	-0.244578	-0.0560704	1.22398	-0.328114	0	0	0.28221	0.106728	-0.253135	0.431825	0.0673409	0	0	-0.214839	-0.106364	0.103273	-0.132533	-0.207196	0.00993644	0.413139	1.40407	0	0	-0.0322988	-0.271352	0.374018	0.451514	1.28389	0	0
0.28	-1.92306	1.47443	-2.87138	0.755868	0.0457804	0.99038	0.235864	-0.242773	-0.0496019	1.2576	-0.32682	0	0	0.266441	0.107577	-0.247281	0.422587	0.073303	0	0	-0.216361	-0.10169	0.099642	-0.133016	-0.210145	0.0186161	0.420513	1.39496	0	0	-0.0288321	-0.268424	0.373443	0.445852	1.27836	0	0
0.29	-1.95009	1.47713	-2.84074	0.75487	0.0543775	0.992173	0.259076	-0.240053	-0.0451171	1.28552	-0.311242	0	0	0.248384	0.108082	-0.242884	0.410858	0.0783616	0	0	-0.219237	-0.0970344	0.0938222	-0.129836	-0.21112	0.0253654	0.421494	1.3871	0	0	-0.0248517	-0.265595	0.369781	0.438566	1.27848	0	0
0.3	-1.97097	1.48046	-2.81551	0.754007	0.0627772	0.993895	0.282241	-0.236311	-0.0417012	1.30907	-0.288104	0	0	0.231339	0.107827	-0.239181	0.398935	0.0825758	0	0	-0.221357	-0.0923634	0.0872634	-0.124624	-0.210688	0.0300238	0.419291	1.37962	0	0	-0.0200028	-0.262465	0.363552	0.429473	1.28265	0	0
0.31	-1.97408	1.48375	-2.8077	0.753278	0.0710425	0.995343	0.306868	-0.232791	-0.0386937	1.32918	-0.264477	0	0	0.216376	0.10764	-0.237358	0.387448	0.0860002	0	0	-0.221675	-0.0888321	0.0803409	-0.11836	-0.209001	0.0343326	0.414541	1.37514	0	0	-0.0149996	-0.260349	0.358004	0.420939	1.28903	0	0
0.32	-1.96096	1.48645	-2.81629	0.75261	0.0791586	0.99656	0.332425	-0.229639	-0.0346451	1.34529	-0.243603	0	0	0.202886	0.108123	-0.236483	0.376259	0.0900302	0	0	-0.220938	-0.0867474	0.0735667	-0.111576	-0.20669	0.0387015	0.4085	1.37339	0	0	-0.00978319	-0.259187	0.353343	0.412952	1.29533	0	0
0.33	-1.94815	1.48869	-2.82533	0.752014	0.0872289	0.997666	0.356905	-0.226231	-0.029863	1.35652	-0.228902	0	0	0.189254	0.108901	-0.235796	0.365009	0.0937003	0	0	-0.220523	-0.0852808	0.0676589	-0.104877	-0.204225	0.0407734	0.40324	1.37129	0	0	-0.0049896	-0.259197	0.350241	0.407162	1.30019	0	0
0.34	-1.93693	1.49079	-2.83337	0.751507	0.0952746	0.998666	0.380712	-0.222629	-0.0249688	1.36357	-0.219613	0	0	0.175639	0.109402	-0.235507	0.354123	0.0980302	0	0	-0.220297	-0.0840752	0.0624495	-0.0984782	-0.201836	0.0419288	0.398599	1.36963	0	0	-0.000867299	-0.260324	0.349013	0.403805	1.30274	0	0
0.35	-1.93346	1.4933	-2.83366	0.751023	0.103321	0.999588	0.402667	-0.218595	-0.0211417	1.36593	-0.210954	0	0	0.161462	0.109155	-0.234545	0.342887	0.101262	0	0	-0.220695	-0.0822016	0.0573656	-0.0924409	-0.200044	0.0438808	0.3949	1.36836	0	0	0.00259696	-0.262187	0.349336	0.40253	1.30322	0	0
0.36	-1.96253	1.48645	-2.80077	0.750574	0.111079	1.00152	0.418031	-0.224009	-0.0164744	1.36363	-0.203397	0	0	0.140337	0.117349	-0.235165	0.327682	0.097563	0	0	-0.229227	-0.0895513	0.0490736	-0.0818239	-0.195542	0.0447756	0.386496	1.36897	0	0	0.00803974	-0.266431	0.350031	0.402126	1.30222	0	0
